#!OML:ASF F:\VICON\USERDATA\INSTALL\rory3\rory3.ASF
:FULLY-SPECIFIED
:DEGREES
2546
root -3.96252 17.6331 -5.3512 22.733 67.2856 16.7033
lowerback 8.56024 3.39515 3.93394
upperback 3.09134 5.1564 6.39403
thorax -1.83091 2.63687 3.91165
lowerneck -10.1397 -15.9412 -13.4787
upperneck 24.9857 -19.0147 -0.558819
head 11.0283 -9.80748 -0.628942
rclavicle 1.03368e-014 -3.18055e-014
rhumerus 9.72763 33.5196 -102.981
rradius 32.5539
rwrist 30.5546
rhand -20.3035 -4.57109
rfingers 7.12502
rthumb 6.04685 -34.4648
lclavicle 1.03368e-014 -3.18055e-014
lhumerus 11.4441 16.7642 67.4707
lradius 21.0136
lwrist -32.1577
lhand -22.393 41.3671
lfingers 7.12502
lthumb 4.0293 431.309
rfemur -32.9259 -13.8 10.8799
rtibia 39.6482
rfoot -15.264 -12.5188
rtoes 16.5503
lfemur -9.52532 -5.04436 -21.607
ltibia 21.6756
lfoot -15.5195 0.915392
ltoes -17.3985
2547
root -3.96042 17.6336 -5.34711 22.8224 67.1277 16.7661
lowerback 8.08463 3.41176 4.18578
upperback 3.349 5.1252 6.10256
thorax -1.24933 2.62522 3.51213
lowerneck -10.1486 -15.99 -13.3254
upperneck 24.6322 -19.2142 -0.205625
head 10.9284 -9.8529 -0.545948
rclavicle -1.82882e-014 1.59028e-014
rhumerus 10.3388 33.5945 -102.625
rradius 32.9019
rwrist 29.9972
rhand -20.5465 -4.63628
rfingers 7.12502
rthumb 5.81217 -34.5366
lclavicle -1.82882e-014 1.59028e-014
lhumerus 11.6537 15.6677 66.8305
lradius 21.4962
lwrist -31.2622
lhand -21.8782 41.976
lfingers 7.12502
lthumb 4.52635 431.908
rfemur -33.0084 -13.8036 10.8563
rtibia 39.6735
rfoot -15.1922 -12.4565
rtoes 16.1613
lfemur -9.4908 -4.91272 -21.685
ltibia 21.5976
lfoot -15.5056 0.959034
ltoes -17.469
2548
root -3.95927 17.6355 -5.3441 22.8405 67.0127 16.785
lowerback 8.00795 3.38799 4.12267
upperback 3.3539 5.0796 6.06362
thorax -1.20224 2.60196 3.51581
lowerneck -10.1113 -15.9589 -13.341
upperneck 24.4709 -19.1885 -0.151624
head 10.8669 -9.84045 -0.510968
rclavicle 2.14687e-014 -4.13472e-014
rhumerus 10.3079 33.3685 -102.546
rradius 33.2336
rwrist 30.0134
rhand -20.4004 -4.3025
rfingers 7.12502
rthumb 5.95324 -34.1989
lclavicle 2.14687e-014 -4.13472e-014
lhumerus 11.2594 14.7302 66.3605
lradius 22.0625
lwrist -30.42
lhand -21.7088 42.7329
lfingers 7.12502
lthumb 4.68991 432.661
rfemur -33.0551 -13.8161 10.8472
rtibia 39.7151
rfoot -15.1387 -12.3811
rtoes 15.8449
lfemur -9.42756 -4.76759 -21.7254
ltibia 21.4974
lfoot -15.4435 0.892283
ltoes -17.8551
2549
root -3.95995 17.6357 -5.3416 23.0543 66.9072 17.017
lowerback 7.95461 3.28771 3.98138
upperback 3.36173 4.92963 6.0401
thorax -1.16945 2.52636 3.58676
lowerneck -10.0792 -15.8647 -13.4178
upperneck 24.2712 -19.0589 -0.103509
head 10.7921 -9.787 -0.452441
rclavicle -2.54444e-014 -4.77083e-014
rhumerus 10.1888 33.2845 -102.448
rradius 33.7247
rwrist 30.0547
rhand -19.9865 -3.91822
rfingers 7.12502
rthumb 6.35283 -33.803
lclavicle -2.54444e-014 -4.77083e-014
lhumerus 10.7712 14.0642 65.9196
lradius 22.6585
lwrist -29.751
lhand -21.7204 43.3637
lfingers 7.12502
lthumb 4.67878 433.292
rfemur -33.0962 -13.8281 10.7326
rtibia 39.7601
rfoot -15.0615 -12.2926
rtoes 15.7488
lfemur -9.36236 -4.72589 -21.8527
ltibia 21.3901
lfoot -15.4184 0.908687
ltoes -17.8848
2550
root -3.96028 17.633 -5.33691 23.1538 66.7548 17.1439
lowerback 7.95543 3.15991 3.79206
upperback 3.38507 4.74783 6.09928
thorax -1.15967 2.43548 3.77089
lowerneck -10.1349 -15.749 -13.7144
upperneck 24.137 -18.8491 -0.0280978
head 10.7817 -9.70921 -0.357893
rclavicle -4.85035e-014 -2.54444e-014
rhumerus 10.0765 33.7606 -102.052
rradius 34.3552
rwrist 29.3643
rhand -19.9232 -3.69342
rfingers 7.12502
rthumb 6.41398 -33.5763
lclavicle -4.85035e-014 -2.54444e-014
lhumerus 10.271 13.9544 65.7002
lradius 23.245
lwrist -29.373
lhand -21.9264 42.9707
lfingers 7.12502
lthumb 4.47988 432.903
rfemur -33.1487 -13.8476 10.6748
rtibia 39.8017
rfoot -14.9514 -12.2108
rtoes 15.6231
lfemur -9.25997 -4.74153 -21.9568
ltibia 21.2732
lfoot -15.3884 1.06763
ltoes -17.7123
2551
root -3.95801 17.6325 -5.33165 22.9353 66.5858 16.9447
lowerback 7.94225 3.09242 3.72464
upperback 3.42259 4.65211 6.13943
thorax -1.1183 2.38826 3.86129
lowerneck -10.3626 -15.6822 -13.7658
upperneck 24.1383 -18.6974 -0.10151
head 10.8122 -9.65065 -0.370902
rclavicle -5.08889e-014 3.18055e-015
rhumerus 10.0332 33.9525 -101.714
rradius 34.9203
rwrist 28.8578
rhand -20.2352 -3.6029
rfingers 7.12502
rthumb 6.11271 -33.4947
lclavicle -5.08889e-014 3.18055e-015
lhumerus 9.90304 13.9016 65.5545
lradius 23.8055
lwrist -29.2069
lhand -22.4 41.3239
lfingers 7.12502
lthumb 4.02247 431.266
rfemur -33.1707 -13.8708 10.756
rtibia 39.8158
rfoot -14.871 -12.0398
rtoes 15.4916
lfemur -9.12556 -4.71758 -21.9354
ltibia 21.167
lfoot -15.3657 1.19183
ltoes -17.6524
2552
root -3.95547 17.6346 -5.32624 22.7346 66.4363 16.7765
lowerback 7.87211 3.03738 3.60174
upperback 3.48743 4.56397 6.19882
thorax -1.02289 2.34506 4.00642
lowerneck -10.573 -15.636 -13.8011
upperneck 24.0831 -18.5877 -0.146285
head 10.8224 -9.60755 -0.378995
rclavicle 3.73715e-014 -6.36111e-014
rhumerus 9.90452 33.8906 -101.414
rradius 35.6211
rwrist 28.7874
rhand -20.5259 -3.77049
rfingers 7.12502
rthumb 5.83206 -33.6702
lclavicle 3.73715e-014 -6.36111e-014
lhumerus 9.46202 13.3396 65.3027
lradius 24.5162
lwrist -28.663
lhand -22.6897 40.3951
lfingers 7.12502
lthumb 3.74273 430.342
rfemur -33.1461 -13.7944 10.8005
rtibia 39.8056
rfoot -14.8665 -12.0058
rtoes 15.2776
lfemur -8.9876 -4.72996 -21.9235
ltibia 21.0675
lfoot -15.3313 1.38142
ltoes -17.6498
2553
root -3.95446 17.6359 -5.31835 22.3343 66.2667 16.4311
lowerback 7.98757 2.95903 3.5959
upperback 3.44119 4.46932 6.17266
thorax -1.12886 2.29652 3.98249
lowerneck -10.6171 -15.5534 -13.7929
upperneck 24.0562 -18.4903 -0.0770738
head 10.8199 -9.55656 -0.343121
rclavicle -3.10104e-014 -1.59028e-014
rhumerus 9.53924 33.801 -101.365
rradius 36.5204
rwrist 28.1129
rhand -20.4809 -3.73874
rfingers 7.12502
rthumb 5.87558 -33.6373
lclavicle -3.10104e-014 -1.59028e-014
lhumerus 8.77945 12.4187 64.7645
lradius 25.4097
lwrist -27.9456
lhand -22.7915 40.707
lfingers 7.12502
lthumb 3.64443 430.656
rfemur -33.0672 -13.5831 10.8865
rtibia 39.7542
rfoot -14.8919 -11.9673
rtoes 15.5293
lfemur -8.8164 -4.81894 -21.8533
ltibia 20.9857
lfoot -15.3232 1.74988
ltoes -17.8045
2554
root -3.95255 17.6356 -5.31081 22.0208 66.0151 16.14
lowerback 7.97262 2.94444 3.52566
upperback 3.43752 4.44156 6.14769
thorax -1.12648 2.28157 3.99872
lowerneck -10.6756 -15.4927 -13.7865
upperneck 24.0347 -18.435 0.0450615
head 10.8304 -9.51843 -0.297944
rclavicle -2.14687e-014 2.22639e-014
rhumerus 9.2923 33.6441 -101.084
rradius 37.5666
rwrist 26.8419
rhand -20.1914 -3.29076
rfingers 7.12502
rthumb 6.15505 -33.1813
lclavicle -2.14687e-014 2.22639e-014
lhumerus 8.21773 11.5975 64.4152
lradius 26.3823
lwrist -27.4191
lhand -22.6577 40.7092
lfingers 7.12502
lthumb 3.7737 430.656
rfemur -33.0494 -13.4349 10.9574
rtibia 39.6907
rfoot -14.8154 -11.8366
rtoes 15.8788
lfemur -8.68412 -4.68468 -21.8276
ltibia 20.9277
lfoot -15.371 1.94793
ltoes -17.9721
2555
root -3.94987 17.6383 -5.30749 21.8343 65.8067 15.8995
lowerback 7.86076 2.93636 3.50303
upperback 3.42815 4.41822 6.10767
thorax -1.07178 2.26918 3.97746
lowerneck -10.7263 -15.4375 -13.666
upperneck 23.9528 -18.3849 0.0635517
head 10.7934 -9.48559 -0.297698
rclavicle -1.35174e-014 -5.725e-014
rhumerus 8.98097 33.3971 -100.707
rradius 38.6946
rwrist 26.356
rhand -20.9911 -3.43593
rfingers 7.12502
rthumb 5.38292 -33.3476
lclavicle -1.35174e-014 -5.725e-014
lhumerus 7.63888 10.3966 63.9776
lradius 27.5338
lwrist -26.4958
lhand -22.462 40.208
lfingers 7.12502
lthumb 3.96261 430.151
rfemur -33.1059 -13.3335 11.0325
rtibia 39.6216
rfoot -14.6572 -11.7935
rtoes 15.7175
lfemur -8.66519 -4.57624 -21.8003
ltibia 20.9048
lfoot -15.3906 2.02449
ltoes -18.0966
2556
root -3.94847 17.6394 -5.30681 21.6869 65.712 15.6834
lowerback 7.88112 2.86072 3.68585
upperback 3.31765 4.32929 5.93393
thorax -1.16668 2.2226 3.6967
lowerneck -10.6101 -15.4092 -13.3976
upperneck 23.8161 -18.4128 0.0284012
head 10.688 -9.48575 -0.328781
rclavicle 8.11041e-014 5.725e-014
rhumerus 8.40268 33.0241 -100.683
rradius 39.945
rwrist 26.6129
rhand -22.5068 -4.36359
rfingers 7.12502
rthumb 3.91942 -34.3073
lclavicle 8.11041e-014 5.725e-014
lhumerus 6.94603 8.93691 63.3117
lradius 28.8402
lwrist -25.3791
lhand -22.409 39.5228
lfingers 7.12502
lthumb 4.01384 429.465
rfemur -33.1493 -13.2389 11.1001
rtibia 39.564
rfoot -14.623 -11.7465
rtoes 15.6783
lfemur -8.7011 -4.58235 -21.7487
ltibia 20.8976
lfoot -15.3862 2.17257
ltoes -18.1823
2557
root -3.94627 17.6401 -5.30605 21.5707 65.5859 15.5299
lowerback 7.95641 2.7696 3.88736
upperback 3.19908 4.22248 5.69247
thorax -1.29428 2.16581 3.33388
lowerneck -10.5108 -15.4119 -13.1742
upperneck 23.7253 -18.4709 -0.0110991
head 10.6099 -9.50336 -0.364671
rclavicle -6.20208e-014 3.81667e-014
rhumerus 7.75457 32.2747 -100.86
rradius 41.3505
rwrist 26.5459
rhand -23.492 -4.43457
rfingers 7.12502
rthumb 2.96796 -34.3937
lclavicle -6.20208e-014 3.81667e-014
lhumerus 6.19065 7.24271 62.5469
lradius 30.3959
lwrist -24.3851
lhand -22.2972 39.2931
lfingers 7.12502
lthumb 4.12182 429.233
rfemur -33.1715 -13.1585 11.1423
rtibia 39.5074
rfoot -14.5599 -11.6821
rtoes 15.567
lfemur -8.71639 -4.48896 -21.7484
ltibia 20.9101
lfoot -15.4285 2.34626
ltoes -18.3738
2558
root -3.94425 17.6405 -5.30337 21.422 65.4237 15.3694
lowerback 7.9641 2.71468 3.87899
upperback 3.15986 4.14626 5.59884
thorax -1.33043 2.12594 3.24607
lowerneck -10.5351 -15.4174 -13.2647
upperneck 23.6792 -18.5011 0.143328
head 10.6254 -9.50917 -0.308488
rclavicle -6.67916e-014 -4.77083e-014
rhumerus 7.23491 31.4631 -100.595
rradius 43.0262
rwrist 25.6093
rhand -24.0441 -3.85441
rfingers 7.12502
rthumb 2.43482 -33.8203
lclavicle -6.67916e-014 -4.77083e-014
lhumerus 5.43322 5.80049 62.0375
lradius 32.0233
lwrist -24.1852
lhand -22.1447 38.9993
lfingers 7.12502
lthumb 4.26908 428.936
rfemur -33.1842 -13.0984 11.2067
rtibia 39.4581
rfoot -14.396 -11.6343
rtoes 15.2115
lfemur -8.68286 -4.32622 -21.7407
ltibia 20.9126
lfoot -15.4712 2.41263
ltoes -18.3923
